<?xml version="1.0" standalone="no"?><!DOCTYPE svg PUBLIC "-//W3C//DTD SVG 1.1//EN" "http://www.w3.org/Graphics/SVG/1.1/DTD/svg11.dtd"><svg t="1666885299605" class="icon" viewBox="0 0 1024 1024" version="1.1" xmlns="http://www.w3.org/2000/svg" p-id="4441" xmlns:xlink="http://www.w3.org/1999/xlink" width="200" height="200"><path d="M755.0976 61.44h-170.3936v318.2592a9.6256 9.6256 0 0 1-15.7696 8.3968l-103.6288-93.7984a8.8064 8.8064 0 0 0-12.288 0l-100.352 93.184a9.6256 9.6256 0 0 1-15.7696-8.3968V61.44h-47.5136A84.7872 84.7872 0 0 0 204.8 146.0224v506.6752a83.1488 83.1488 0 0 0 2.8672 20.48v81.92a102.4 102.4 0 0 0 102.4 102.4h218.9312a17.6128 17.6128 0 0 0 0-35.0208h-219.136a66.9696 66.9696 0 0 1-66.9696-66.9696v-32.3584a83.7632 83.7632 0 0 0 46.4896 14.1312H593.92a175.3088 175.3088 0 0 1 245.76-180.8384v-409.6A84.7872 84.7872 0 0 0 755.0976 61.44z" fill="#0090FF" p-id="4442"></path><path d="M768 561.5616A155.2384 155.2384 0 1 0 923.2384 716.8a155.2384 155.2384 0 0 0-155.2384-155.2384z m66.1504 240.2304a20.48 20.48 0 0 1-28.8768 0l-56.5248-56.32a20.48 20.48 0 0 1-5.9392-14.5408v-94.208a20.48 20.48 0 1 1 40.96 0v85.6064l50.3808 50.3808a20.48 20.48 0 0 1 0 29.0816z" fill="#0090FF" p-id="4443"></path></svg>