<?xml version="1.0" standalone="no"?><!DOCTYPE svg PUBLIC "-//W3C//DTD SVG 1.1//EN" "http://www.w3.org/Graphics/SVG/1.1/DTD/svg11.dtd"><svg t="1666884460448" class="icon" viewBox="0 0 1024 1024" version="1.1" xmlns="http://www.w3.org/2000/svg" p-id="2104" xmlns:xlink="http://www.w3.org/1999/xlink" width="200" height="200"><path d="M337.92 215.04c-33.792 0-61.44-27.648-61.44-61.44s27.648-61.44 61.44-61.44 61.44 27.648 61.44 61.44-27.648 61.44-61.44 61.44z m0-92.16c-16.896 0-30.72 13.824-30.72 30.72s13.824 30.72 30.72 30.72 30.72-13.824 30.72-30.72-13.824-30.72-30.72-30.72z" fill="#7BA86C" p-id="2105"></path><path d="M441.856 279.04c-4.096 0-7.68-1.536-10.752-4.608L362.496 205.824c-6.144-6.144-6.144-15.872 0-21.504 6.144-6.144 15.872-6.144 21.504 0l68.608 68.608c6.144 6.144 6.144 15.872 0 21.504-2.56 3.072-6.656 4.608-10.752 4.608zM686.08 215.04c-33.792 0-61.44-27.648-61.44-61.44s27.648-61.44 61.44-61.44 61.44 27.648 61.44 61.44-27.648 61.44-61.44 61.44z m0-92.16c-16.896 0-30.72 13.824-30.72 30.72s13.824 30.72 30.72 30.72 30.72-13.824 30.72-30.72-13.824-30.72-30.72-30.72z" fill="#7BA86C" p-id="2106"></path><path d="M582.144 279.04c-4.096 0-7.68-1.536-10.752-4.608-6.144-6.144-6.144-15.872 0-21.504L640 184.32c6.144-6.144 15.872-6.144 21.504 0 6.144 6.144 6.144 15.872 0 21.504l-68.608 68.608c-3.072 3.072-7.168 4.608-10.752 4.608z" fill="#7BA86C" p-id="2107"></path><path d="M439.808 392.192c-20.992-50.176 13.312-107.52 67.584-110.592h8.192c54.272 2.56 88.576 60.416 67.584 110.592l-19.456 47.104H459.776l-19.968-47.104zM596.992 484.864s63.488 70.656 79.872 150.016c23.552 112.64-70.656 240.128-164.352 291.84h-1.024c-93.696-51.712-187.904-179.2-164.352-291.84 16.384-79.36 79.872-150.016 79.872-150.016" fill="#EBF7E0" p-id="2108"></path><path d="M591.872 495.616H432.128c-6.144 0-11.776-3.584-14.336-9.216l-29.184-71.68c-17.408-41.472-13.312-89.088 10.752-126.976 23.552-37.376 61.952-59.904 105.472-62.464h14.848c43.52 2.048 81.92 25.088 105.472 62.464 24.064 37.888 28.16 85.504 10.752 126.976l-29.696 71.168c-2.56 5.632-8.192 9.728-14.336 9.728z m-149.504-30.72h139.264l25.6-61.952c13.312-32.256 10.24-69.12-8.192-98.816-17.92-28.672-47.616-46.08-80.896-48.128H506.88c-33.28 1.536-62.976 18.944-80.896 48.128-18.432 29.696-22.016 66.56-8.192 98.816l24.576 61.952z" fill="#2F5E2A" p-id="2109"></path><path d="M206.848 558.08h-12.8c-103.936-4.096-151.04-62.464-160.768-116.224C23.552 386.56 50.176 332.8 96.768 313.344c100.352-41.472 285.184 27.648 292.864 30.72 7.68 3.072 11.776 11.776 8.704 19.968-3.072 8.192-11.776 11.776-19.968 8.704-2.048-0.512-181.248-67.584-270.336-30.72-33.28 13.824-52.224 53.248-44.544 94.208 9.728 54.272 58.88 88.576 131.584 91.136 130.048 4.608 219.648-73.216 220.672-73.728 6.144-5.632 15.872-5.12 21.504 1.536 5.632 6.144 5.12 15.872-1.536 21.504-3.584 3.072-93.184 81.408-228.864 81.408z" fill="#2F5E2A" p-id="2110"></path><path d="M216.064 703.488c-17.408 0-34.816-2.048-52.224-8.192-39.424-13.312-66.56-35.84-78.848-66.56-12.288-31.232-8.192-67.072 12.8-106.496 4.096-7.68 13.312-10.24 20.992-6.656 7.68 4.096 10.24 13.312 6.656 20.992-16.384 31.232-20.48 58.368-11.264 80.896 10.752 27.136 38.4 41.472 59.904 48.64 69.632 23.04 155.648-24.064 156.672-24.576 7.68-4.096 16.896-1.536 20.992 6.144 4.096 7.168 1.536 16.896-6.144 20.992-3.584 2.048-63.488 34.816-129.536 34.816zM818.688 558.08c-135.68 0-225.28-78.336-229.376-81.92-6.144-5.632-7.168-15.36-1.536-21.504 5.632-6.144 15.36-7.168 21.504-1.536 1.024 0.512 90.624 78.848 220.672 73.728 72.704-2.56 121.856-36.864 131.584-91.136 7.168-40.96-11.264-80.896-44.544-94.208-89.088-36.864-268.288 30.208-270.336 30.72-8.192 3.072-16.896-1.024-19.968-8.704-3.072-7.68 1.024-16.896 8.704-19.968 7.68-3.072 192.512-71.68 292.864-30.72 46.592 18.944 73.216 73.216 63.488 128-9.728 53.76-56.832 112.64-160.768 116.224-3.584 1.024-8.192 1.024-12.288 1.024z" fill="#2F5E2A" p-id="2111"></path><path d="M809.472 703.488c-66.048 0-125.952-32.768-129.024-34.816-7.168-4.096-10.24-13.312-6.144-20.992 4.096-7.168 13.312-10.24 20.992-6.144 1.024 0.512 87.552 47.616 156.672 24.576 20.992-7.168 48.64-21.504 59.904-48.64 8.704-22.528 5.12-49.664-11.264-80.896-4.096-7.68-1.024-16.896 6.656-20.992 7.68-4.096 16.896-1.024 20.992 6.656 20.992 39.424 25.088 75.264 12.8 106.496-12.288 30.208-39.424 53.248-78.848 66.56-17.92 6.144-35.328 8.192-52.736 8.192z" fill="#2F5E2A" p-id="2112"></path><path d="M640 588.8H384c-8.704 0-15.36-6.656-15.36-15.36s6.656-15.36 15.36-15.36h256c8.704 0 15.36 6.656 15.36 15.36s-6.656 15.36-15.36 15.36zM675.84 721.92H358.4c-8.704 0-15.36-6.656-15.36-15.36s6.656-15.36 15.36-15.36h317.44c8.704 0 15.36 6.656 15.36 15.36s-6.656 15.36-15.36 15.36zM614.4 839.68H409.6c-8.704 0-15.36-6.656-15.36-15.36s6.656-15.36 15.36-15.36h204.8c8.704 0 15.36 6.656 15.36 15.36s-6.656 15.36-15.36 15.36z" fill="#7BA86C" p-id="2113"></path><path d="M513.024 942.08h-1.024c-2.56 0-5.12-0.512-7.168-2.048-101.888-55.808-196.608-189.952-172.032-308.224 17.408-82.432 80.896-154.112 83.456-157.184 5.632-6.144 15.36-6.656 21.504-1.024 6.144 5.632 6.656 15.36 1.024 21.504-0.512 0.512-60.928 69.12-76.288 142.848-20.48 98.816 59.904 218.112 149.504 271.36 90.112-53.248 170.496-172.544 149.504-271.36-15.36-74.24-75.776-142.336-76.288-142.848-5.632-6.144-5.12-15.872 1.024-21.504s15.872-5.12 21.504 1.024c2.56 3.072 66.048 74.752 83.456 157.184 24.576 118.784-70.144 252.416-172.032 308.224-1.024 1.536-3.584 2.048-6.144 2.048z" fill="#2F5E2A" p-id="2114"></path></svg>