<?xml version="1.0" standalone="no"?><!DOCTYPE svg PUBLIC "-//W3C//DTD SVG 1.1//EN" "http://www.w3.org/Graphics/SVG/1.1/DTD/svg11.dtd"><svg t="1666884752532" class="icon" viewBox="0 0 1024 1024" version="1.1" xmlns="http://www.w3.org/2000/svg" p-id="6578" xmlns:xlink="http://www.w3.org/1999/xlink" width="200" height="200"><path d="M447 558.6c61.4 0 119.1-23.9 162.5-67.3 43.4-43.4 67.3-101.1 67.3-162.5 0-61.4-23.9-119.1-67.3-162.5C566.1 122.9 508.4 99 447 99c-61.4 0-119.1 23.9-162.5 67.3-43.4 43.4-67.3 101.1-67.3 162.5 0 61.4 23.9 119.1 67.3 162.5 43.4 43.4 101.1 67.3 162.5 67.3z m0-387.8c87 0 157.9 70.8 157.9 157.9 0 87.1-70.8 157.9-157.9 157.9-87.1 0-157.9-70.8-157.9-157.9 0-87.1 70.9-157.9 157.9-157.9zM634.5 639c0-19.9-16.1-36-36-36h-342c-50.9 0-98.9 18.6-135.2 52.3-37 34.4-57.3 80.3-57.3 129.3v139.1c0 19.9 16.1 36 36 36s36-16.1 36-36V784.6c0-60.4 54-109.6 120.5-109.6h342c19.9 0 36-16.1 36-36z" p-id="6579"></path><path d="M943.89 437.389c13.517 5.46 20.4 20.542 15.67 34.333L804.203 924.619c-9.512 27.73-39.702 42.498-67.432 32.986a53.08 53.08 0 0 1-2.66-0.994c-27.182-10.981-40.314-41.918-29.332-69.099a53.08 53.08 0 0 1 1.134-2.604L908.768 451.2c6.176-13.206 21.604-19.273 35.122-13.811z" p-id="6580"></path></svg>