<?xml version="1.0" standalone="no"?><!DOCTYPE svg PUBLIC "-//W3C//DTD SVG 1.1//EN" "http://www.w3.org/Graphics/SVG/1.1/DTD/svg11.dtd"><svg t="1666884786338" class="icon" viewBox="0 0 1024 1024" version="1.1" xmlns="http://www.w3.org/2000/svg" p-id="6889" xmlns:xlink="http://www.w3.org/1999/xlink" width="200" height="200"><path d="M935.7 403.9c-0.4-1.1-0.8-2.2-1.3-3.2-2-4.3-4.6-8.4-8-11.8-0.5-0.5-1-0.8-1.5-1.2-2-1.9-4-3.7-6.3-5.2l-384-240c-13.9-8.6-31.4-8.6-45.2 0l-384 240c-12.5 7.8-20.1 21.5-20.1 36.2 0 14.7 7.6 28.4 20.1 36.2L223.9 529c-0.7 3-1.8 5.8-1.8 9v145.5c0 14.7 7.6 28.4 20 36.2l247.2 154.5c6.9 4.3 14.8 6.5 22.6 6.5 7.8 0 15.7-2.2 22.6-6.5l247.2-154.5c12.5-7.8 20-21.5 20-36.2V537.9c0-3.2-1.1-6-1.8-9l53.2-33.3v221.7c0 23.6 19.1 42.7 42.7 42.7s42.7-19.1 42.7-42.7V418.7c0.2-5.2-1.1-10.1-2.8-14.8zM716.6 659.7L512 787.6 307.4 659.8v-78.7l182 113.7c6.9 4.3 14.8 6.5 22.6 6.5 7.8 0 15.7-2.2 22.6-6.5l182-113.7v78.6zM512 608.3L208.5 418.7 512 229l303.5 189.7L512 608.3z" p-id="6890"></path><path d="M896 845.3m-42.7 0a42.7 42.7 0 1 0 85.4 0 42.7 42.7 0 1 0-85.4 0Z" p-id="6891"></path></svg>