<?xml version="1.0" standalone="no"?><!DOCTYPE svg PUBLIC "-//W3C//DTD SVG 1.1//EN" "http://www.w3.org/Graphics/SVG/1.1/DTD/svg11.dtd"><svg t="1666884815433" class="icon" viewBox="0 0 1024 1024" version="1.1" xmlns="http://www.w3.org/2000/svg" p-id="7833" xmlns:xlink="http://www.w3.org/1999/xlink" width="200" height="200"><path d="M347.152787 466.003934v51.988984c0 5.103213 0.621115 8.662033 1.896918 10.642885a10.575738 10.575738 0 0 0 5.338229 4.263869c2.26623 0.856131 5.825049 1.29259 10.659673 1.29259h156.000524c5.103213 0 10.441443 1.846557 15.981115 5.539672 5.539672 3.693115 8.880262 9.803541 10.004984 18.314492 1.141508 8.527738-1.477246 14.990689-7.889837 19.40564-6.379016 4.398164-12.422295 6.597246-18.096262 6.597245H345.860197c-6.244721 0-13.563803-0.839344-21.957246-2.551606-8.376656-1.712262-15.124984-5.405377-20.244984-11.079344-5.103213-5.690754-8.158426-11.448656-9.165639-17.273705-0.990426-5.825049-1.477246-13.983475-1.477246-24.508853V355.160131c0-8.796328 0.705049-16.467934 2.131934-22.998033 1.410098-6.546885 4.465311-11.952262 9.148853-16.199344 4.700328-4.263869 10.592525-7.537311 17.693377-9.803541 7.100852-2.283016 14.772459-3.424525 23.01482-3.424524H516.36459c5.690754 0 11.230426 2.131934 16.619017 6.395803 5.405377 4.263869 8.175213 10.810754 8.326295 19.607082 0.134295 8.813115-2.920918 14.923541-9.16564 18.331278-6.261508 3.407738-11.515803 5.12-15.779672 5.12h-151.300197c-6.832262 0-11.163279 0.772197-13.009836 2.350164a13.261639 13.261639 0 0 0-3.827409 4.884984c-0.604328 1.426885-0.940066 4.028852-1.040787 7.822689l-0.033574 49.303081h103.575082c5.405377 0 11.079344 1.77941 17.055475 5.321443 5.959344 3.55882 9.014557 9.736393 9.16564 18.549508 0.134295 8.796328-2.769836 15.276066-8.729181 19.388853-5.976131 4.112787-11.80118 6.177574-17.491934 6.177574h-103.575082z m254.321311-49.890623c5.690754-4.532459 10.441443-7.956984 14.268853-10.223213 3.860984-2.26623 9.736393-4.700328 17.693377-7.251934a100.435934 100.435934 0 0 1 23.031606-4.683541c6.815475-0.285377 15.477508 0.705049 25.986099 2.988066 10.525377 2.26623 19.607082 5.892197 27.278688 10.861114 7.671607 4.968918 13.865967 10.743607 18.549509 17.273705 4.700328 6.530098 7.738754 12.355148 9.165639 17.458361 1.410098 5.12 2.131934 11.666885 2.131934 19.623869v104.414426c0 3.693115-1.141508 7.604459-3.407737 11.717246-2.283016 4.129574-6.882623 6.546885-13.865968 7.251934-6.94977 0.705049-12.288-1.057574-15.981114-5.321442-3.693115-4.263869-5.539672-8.67882-5.539673-13.211279v-95.903475c0-8.527738-1.208656-15.695738-3.625967-21.520787-2.417311-5.825049-6.882623-10.810754-13.429508-14.940328-6.530098-4.112787-14.772459-6.160787-24.710295-6.160787-11.650098 0.570754-21.957246 3.474885-30.887869 8.72918-8.964197 5.254295-15.57823 11.079344-19.842098 17.475148-4.263869 6.395803-6.379016 12.590164-6.379017 18.549508l-0.436459 95.467016c-0.285377 3.693115-1.77941 7.537311-4.465311 11.515804-2.702689 3.978492-7.470164 6.043279-14.285639 6.177573-6.815475 0.134295-11.935475-1.77941-15.343214-5.757901-3.407738-3.978492-5.12-7.956984-5.12-11.918689v-155.16118c0-3.978492 1.645115-7.805902 4.901771-11.515803 3.273443-3.693115 7.889836-5.60682 13.84918-5.741115 5.976131-0.151082 10.877902 1.628328 14.705312 5.321443 3.844197 3.693115 5.757902 7.671607 5.757901 11.935475v2.551606z" fill="#50B446" p-id="7834"></path><path d="M810.504393 103.507934a100.721311 100.721311 0 0 1 100.721312 100.721312v654.688524a100.721311 100.721311 0 0 1-100.721312 100.721312h-587.540983a100.721311 100.721311 0 0 1-100.721312-100.721312v-654.688524a100.721311 100.721311 0 0 1 100.721312-100.721312h587.540983z m0 67.147541h-587.540983a33.57377 33.57377 0 0 0-33.573771 33.573771v654.688524a33.57377 33.57377 0 0 0 33.573771 33.573771h587.540983a33.57377 33.57377 0 0 0 33.573771-33.573771v-654.688524a33.57377 33.57377 0 0 0-33.573771-33.573771z" fill="#2F2F2F" p-id="7835"></path><path d="M333.135738 758.817574h369.311475a33.57377 33.57377 0 1 0 0-67.147541h-369.311475a33.57377 33.57377 0 1 0 0 67.147541z" fill="#50B446" p-id="7836"></path></svg>