<?xml version="1.0" standalone="no"?><!DOCTYPE svg PUBLIC "-//W3C//DTD SVG 1.1//EN" "http://www.w3.org/Graphics/SVG/1.1/DTD/svg11.dtd"><svg t="1666885097687" class="icon" viewBox="0 0 1024 1024" version="1.1" xmlns="http://www.w3.org/2000/svg" p-id="3402" xmlns:xlink="http://www.w3.org/1999/xlink" width="200" height="200"><path d="M737.978182 512H428.683636l109.614546-162.909091 78.661818 93.090909 50.036364-56.087273a369.338182 369.338182 0 0 0-376.087273-117.992727v395.636364h463.825454c0-11.403636 1.629091-23.272727 1.629091-34.443637a372.363636 372.363636 0 0 0-18.385454-117.294545z m-330.472727-197.585455a34.909091 34.909091 0 1 1 34.90909 34.909091 34.909091 34.909091 0 0 1-34.676363-33.978181z" fill="#EDF6FF" p-id="3403"></path><path d="M244.363636 283.229091a372.363636 372.363636 0 1 0 502.923637 426.123636H244.363636z" fill="#EDF6FF" p-id="3404"></path><path d="M989.090909 80.989091h-744.727273v628.363636h744.727273z m-46.545454 581.818182h-651.636364v-535.272728h651.636364z" fill="#040405" p-id="3405"></path><path d="M538.298182 350.254545l-109.614546 162.909091h419.84L721.454545 324.887273l-54.690909 61.44-50.036363 56.087272-78.429091-92.16z" fill="#2394FB" p-id="3406"></path><path d="M442.647273 315.345455m-34.909091 0a34.909091 34.909091 0 1 0 69.818182 0 34.909091 34.909091 0 1 0-69.818182 0Z" fill="#2394FB" p-id="3407"></path></svg>